<svg xmlns="http://www.w3.org/2000/svg" width="32" height="32" viewBox="0 0 32 32">
  <g id="그룹_47936" data-name="그룹 47936" transform="translate(-1525 -116)">
    <path id="패스_2687" data-name="패스 2687"
      d="M8.847,2H20.54a6.854,6.854,0,0,1,6.847,6.847V20.54a6.854,6.854,0,0,1-6.847,6.847H8.847A6.854,6.854,0,0,1,2,20.54V8.847A6.854,6.854,0,0,1,8.847,2ZM20.54,25.387a4.852,4.852,0,0,0,4.847-4.847V8.847A4.852,4.852,0,0,0,20.54,4H8.847A4.852,4.852,0,0,0,4,8.847V20.54a4.852,4.852,0,0,0,4.847,4.847Z"
      transform="translate(1526.613 117)" fill="#fff"></path>
    <path id="패스_2688" data-name="패스 2688"
      d="M16.741,10.935a5.708,5.708,0,0,1,.834.062,5.677,5.677,0,0,1,1.72,10.687,5.7,5.7,0,0,1-2.551.606,5.678,5.678,0,0,1,0-11.355Zm0,9.355a3.678,3.678,0,0,0,3.636-4.217,3.677,3.677,0,0,0-3.1-3.1,3.7,3.7,0,0,0-.541-.04,3.678,3.678,0,0,0,0,7.355Z"
      transform="translate(1524.615 115.03)" fill="#fff"></path>
    <path id="패스_2689" data-name="패스 2689" d="M26.25,9.75h0" transform="translate(1521.488 115.512)"
      fill="none" stroke="#fff" stroke-linecap="round" stroke-linejoin="round" stroke-width="2"></path>
    <rect id="사각형_25209" data-name="사각형 25209" width="32" height="32"
      transform="translate(1525 116)" fill="none"></rect>
  </g>
</svg>